<svg xmlns="http://www.w3.org/2000/svg" viewBox="0 0 150 150"><path d="M92.32 43.44C84.6 35.72 77.19 28.34 75 20c-2.18 8.31-9.6 15.68-17.32 23.44-11.62 11.59-24.77 24.73-24.77 44.47a42.08 42.08 0 1 0 84.18 0c0-19.74-13.18-32.88-24.77-44.47M50.78 97.7c-2.57-.08-12.09-16.5 5.58-33.98l11.7 12.76a.98.98 0 0 1 0 1.4l-.08.08c-2.81 2.85-14.67 14.78-16.15 18.92-.31.86-.78.82-1.05.82M75 119.35c-8 0-14.47-6.48-14.47-14.47 0-3.67 1.44-6.94 3.59-9.56A458.04 458.04 0 0 1 75 83.15s8.11 9.13 10.84 12.13a14.01 14.01 0 0 1 3.63 9.6c0 8-6.48 14.47-14.47 14.47m27.7-23.48c-.31.66-1.01 1.83-1.99 1.87-1.72.08-1.87-.82-3.16-2.69-2.77-4.1-26.88-29.29-31.4-34.17-3.98-4.29-.55-7.29 1.01-8.89l7.76-7.76S92.2 60.61 99.38 71.81s4.76 20.87 3.32 24.07" fill="#009cde"/></svg>