<svg xmlns="http://www.w3.org/2000/svg" viewBox="0 0 512 512"><path d="M274.4 324.6v57.9a27.3 27.3 0 1 0 0 54.6V495H120.8c-9.3 0-16.8-7.5-16.8-16.7V324.6h58a27.3 27.3 0 1 1 54.6 0h57.8Z" fill="#fed86d"/><path d="m465.1 143.5-44.9 147-55.4-16.9a27.23 27.23 0 1 1-52.1-15.9l-19.3-5.9-36.1-11 16.9-55.3a27.3 27.3 0 0 0 15.9-52.2l17-55.4 92.2 28.2 54.6 16.7a16.5 16.5 0 0 1 11.28 20.43l-.08.27Z" fill="#9bd4fb"/><path d="m211.9 185.8 11.3 56.8-56.9 11.3a27.26 27.26 0 0 0-53.5 10.5l-46.2 9.2-10.6 2.2L26.1 125c-1.8-9 4.1-17.9 13.2-19.6l150.8-29.9 2.8 14.3 8.4 42.5a27.27 27.27 0 0 1 10.6 53.5Z" fill="#4f5d99"/><path d="m511 333.9-10.1 111-3.8 42.1c-.9 9.2-9 16-18.3 15.1l-152.9-13.9 5.2-57.6c-15-1.4-26-14.7-24.7-29.7a27.4 27.4 0 0 1 29.6-24.7l2.3-25.9 2.9-31.8 57.7 5.2a27.31 27.31 0 0 0 54.4 4.9l57.7 5.3Z" fill="#f0f0ff"/><path d="M189.2 50.5a9.9 9.9 0 0 1-9.9-9.9V19.7c0-5.5 4.4-9.9 9.9-9.9s9.9 4.4 9.9 9.9v20.9c0 5.5-4.4 9.9-9.9 9.9Zm31.2 17.7a10 10 0 0 1-6.6-17.2l15.5-14a10 10 0 0 1 13.9.7 10 10 0 0 1-.7 13.9l-15.5 14a9.37 9.37 0 0 1-6.6 2.6ZM57.6 341.4a9.9 9.9 0 0 1-9.9-9.9v-20.9c0-5.5 4.4-9.9 9.9-9.9s9.9 4.4 9.9 9.9v20.9c0 5.5-4.4 9.9-9.9 9.9Zm-46.7-24.6a10 10 0 0 1-6.6-17.2l15.5-14a10 10 0 0 1 13.9.7 10 10 0 0 1-.7 13.9l-15.5 14a10.03 10.03 0 0 1-6.6 2.6Zm182-227c-21.6 6.7-59.7 23-89.5 61.6a183.1 183.1 0 0 0-36.8 122.3L56 275.8 26.1 125c-1.8-9 4.1-17.9 13.2-19.6l150.8-29.9 2.8 14.3Z" fill="#3d4a75"/><path d="m465.1 143.5-44.9 147-55.4-16.9a27.23 27.23 0 1 1-52.1-15.9l-19.3-5.9a197.8 197.8 0 0 0 105.9-145.7l54.6 16.7a16.5 16.5 0 0 1 11.28 20.43l-.08.27Z" fill="#70c1f9"/><path d="m500.9 444.9-3.8 42.1c-.9 9.2-9 16-18.3 15.1l-152.9-13.9 5.2-57.6c-15-1.4-26-14.7-24.7-29.7a27.4 27.4 0 0 1 29.6-24.7l2.3-25.9a196.8 196.8 0 0 0 162.6 94.6Z" fill="#e9e9ff"/><path d="M274.4 345.6v36.9a27.3 27.3 0 1 0 0 54.6V495H120.8c-9.3 0-16.8-7.5-16.8-16.7V424a196.88 196.88 0 0 0 64.1-6.5 201.8 201.8 0 0 0 106.3-71.9Z" fill="#fdc72e"/></svg>