<svg xmlns="http://www.w3.org/2000/svg" viewBox="0 0 150 150"><path d="M111.97 41.42a1.07 1.07 0 0 0-.98-.89l-9-.66-6.62-6.47c-.66-.65-1.94-.45-2.43-.3l-3.34 1.01c-1.99-5.64-5.51-10.83-11.71-10.83-.17 0-.35 0-.52.02-1.76-2.29-3.94-3.29-5.83-3.29-14.42 0-21.32 17.73-23.48 26.75l-10.1 3.08c-3.13.97-3.23 1.06-3.64 3.96-.31 2.2-8.5 64.46-8.5 64.46l63.79 11.75 34.56-7.35-12.21-81.23Zm-25.9-6.24-5.4 1.64v-1.14c0-3.51-.5-6.33-1.29-8.57 3.19.39 5.32 3.96 6.68 8.07ZM75.43 27.8c.89 2.19 1.46 5.32 1.46 9.56v.61l-11.15 3.4c2.15-8.15 6.17-12.08 9.69-13.57Zm-4.29-3.99c.62 0 1.25.21 1.85.61-4.62 2.14-9.58 7.53-11.67 18.29l-8.81 2.68c2.45-8.21 8.27-21.59 18.63-21.59Z" fill="#95bf46"/><path d="m110.99 40.53-9-.66-6.62-6.47a1.73 1.73 0 0 0-.92-.42l-4.82 97.03 34.56-7.35-12.21-81.23a1.07 1.07 0 0 0-.98-.89" fill="#5e8e3e"/><path d="m77.88 59.31-4.26 12.47s-3.73-1.96-8.31-1.96c-6.71 0-7.05 4.14-7.05 5.19 0 5.69 15.09 7.88 15.09 21.21 0 10.49-6.77 17.25-15.89 17.25-10.95 0-16.55-6.7-16.55-6.7l2.93-9.53s5.76 4.86 10.61 4.86a4.24 4.24 0 0 0 4.46-4.25c0-7.43-12.38-7.76-12.38-19.96 0-10.27 7.5-20.21 22.63-20.21 5.83 0 8.71 1.64 8.71 1.64" fill="#fff"/></svg>