<svg xmlns="http://www.w3.org/2000/svg" viewBox="0 0 150 150"><g fill="#32373c"><path d="M75 23.3a51.44 51.44 0 0 1 36.55 15.15 51.83 51.83 0 0 1 11.08 16.43c2.69 6.37 4.06 13.14 4.06 20.12a51.44 51.44 0 0 1-15.14 36.55 51.8 51.8 0 0 1-16.43 11.09c-6.37 2.69-13.14 4.06-20.12 4.06a51.44 51.44 0 0 1-36.55-15.15 51.8 51.8 0 0 1-11.09-16.43C24.67 88.75 23.3 81.98 23.3 75a51.44 51.44 0 0 1 15.15-36.55 51.8 51.8 0 0 1 16.43-11.09A51.44 51.44 0 0 1 75 23.3m0-3.3a55 55 0 1 0 0 110 55 55 0 1 0 0-110Z"/><path d="M29.17 75A45.84 45.84 0 0 0 55 116.25l-21.86-59.9A45.71 45.71 0 0 0 29.17 75Zm76.77-2.31c0-5.67-2.04-9.59-3.78-12.64-2.32-3.78-4.5-6.97-4.5-10.75 0-4.21 3.19-8.13 7.7-8.13.2 0 .4.02.59.04a45.8 45.8 0 0 0-69.25 8.63c1.08.03 2.09.06 2.95.06 4.79 0 12.22-.58 12.22-.58 2.47-.14 2.76 3.49.29 3.78 0 0-2.48.29-5.25.44l16.69 49.65 10.03-30.08-7.14-19.56c-2.47-.14-4.81-.44-4.81-.44-2.47-.15-2.18-3.92.29-3.78 0 0 7.57.58 12.07.58 4.79 0 12.22-.58 12.22-.58 2.47-.14 2.76 3.49.29 3.78 0 0-2.49.29-5.25.44l16.56 49.27 4.73-14.98c2.1-6.55 3.33-11.19 3.33-15.11ZM75.8 79.01l-13.75 39.96a45.76 45.76 0 0 0 28.17-.73c-.12-.2-.24-.4-.33-.63L75.8 79.01Zm39.42-26c.2 1.46.31 3.03.31 4.71 0 4.65-.87 9.88-3.49 16.42l-14 40.47A45.8 45.8 0 0 0 115.22 53Z"/></g></svg>